<svg width="222" height="68" viewBox="0 0 222 68" fill="none" xmlns="http://www.w3.org/2000/svg">
<path d="M1 65L31.5 1.5L52 65H45.5L31.5 17.5L9 65H1Z" fill="#007EFF"/>
<path d="M37.5 43.5H21L19.5 46.5H37.5V43.5Z" fill="#007EFF"/>
<path d="M1 65L31.5 1.5L52 65H45.5L31.5 17.5L9 65H1Z" stroke="#007EFF"/>
<path d="M37.5 43.5H21L19.5 46.5H37.5V43.5Z" stroke="#007EFF"/>
<path d="M170 65.5L200.5 2L221 65.5H214.5L200.5 18L178 65.5H170Z" fill="#007EFF"/>
<path d="M205.5 44H191.5L189 47H206.5L205.5 44Z" fill="#007EFF"/>
<path d="M170 65.5L200.5 2L221 65.5H214.5L200.5 18L178 65.5H170Z" stroke="#007EFF"/>
<path d="M205.5 44H191.5L189 47H206.5L205.5 44Z" stroke="#007EFF"/>
<path d="M99 1.50015H60.5C57.1538 1.60014 56.0286 3.99573 58.5 5.50015C60.9714 7.00457 96 5.50015 96 5.50015C96 5.50015 54 60.5001 57 65.0001C60 69.5001 100.5 65.0001 100.5 65.0001C103.832 63.5824 104.955 62.6883 102.5 60.5001C102.5 60.5001 64.7135 67.9671 64 60.5001C63.2865 53.0332 105.467 7.2846 102.5 1.50015H99Z" fill="#007EFF" stroke="#007EFF"/>
<path d="M162.153 2H123.653C120.307 2.09999 119.182 4.49558 121.653 6C124.125 7.50442 159.153 6 159.153 6C159.153 6 117.153 61 120.153 65.5C123.153 70 163.653 65.5 163.653 65.5C166.985 64.0822 168.109 63.1881 165.653 61C165.653 61 127.867 68.4669 127.153 61C126.44 53.533 168.621 7.78444 165.653 2H162.153Z" fill="#007EFF" stroke="#007EFF"/>
<path d="M109 1V65.5H113V2.5L109 1Z" fill="#007EFF" stroke="#007EFF"/>
</svg>
