<svg width="179" height="36" viewBox="0 0 179 36" fill="none" xmlns="http://www.w3.org/2000/svg">
<path d="M9.584 10.196C10.5893 8.91333 11.8893 7.96 13.484 7.336C15.1133 6.67733 16.968 6.348 19.048 6.348V15.24C18.1467 15.136 17.4013 15.084 16.812 15.084C14.6973 15.084 13.0333 15.656 11.82 16.8C10.6413 17.944 10.052 19.6947 10.052 22.052V35H0.172V6.816H9.584V10.196ZM51.8792 20.96C51.8792 21.0293 51.8272 21.844 51.7232 23.404H31.2352C31.6512 24.86 32.4486 25.9867 33.6272 26.784C34.8406 27.5467 36.3486 27.928 38.1512 27.928C39.5032 27.928 40.6646 27.7373 41.6352 27.356C42.6406 26.9747 43.6459 26.3507 44.6512 25.484L49.8512 30.892C47.1126 33.9427 43.1086 35.468 37.8392 35.468C34.5459 35.468 31.6512 34.844 29.1552 33.596C26.6592 32.348 24.7179 30.6147 23.3312 28.396C21.9792 26.1773 21.3032 23.664 21.3032 20.856C21.3032 18.0827 21.9619 15.604 23.2792 13.42C24.6312 11.2013 26.4859 9.468 28.8432 8.22C31.2006 6.972 33.8526 6.348 36.7992 6.348C39.6072 6.348 42.1552 6.93733 44.4432 8.116C46.7312 9.26 48.5339 10.9413 49.8512 13.16C51.2032 15.344 51.8792 17.944 51.8792 20.96ZM36.8512 13.368C35.3259 13.368 34.0432 13.8013 33.0032 14.668C31.9979 15.5347 31.3566 16.7133 31.0792 18.204H42.6232C42.3459 16.7133 41.6872 15.5347 40.6472 14.668C39.6419 13.8013 38.3766 13.368 36.8512 13.368ZM74.9905 6.348C78.4918 6.348 81.2998 7.388 83.4145 9.468C85.5638 11.548 86.6385 14.6853 86.6385 18.88V35H76.7585V20.492C76.7585 16.644 75.2158 14.72 72.1305 14.72C70.4318 14.72 69.0625 15.2747 68.0225 16.384C67.0172 17.4933 66.5145 19.1573 66.5145 21.376V35H56.6345V6.816H66.0465V9.884C67.1558 8.74 68.4732 7.87333 69.9985 7.284C71.5238 6.66 73.1878 6.348 74.9905 6.348ZM112.49 33.856C111.658 34.376 110.635 34.7747 109.422 35.052C108.243 35.3293 106.978 35.468 105.626 35.468C101.951 35.468 99.1255 34.5667 97.1495 32.764C95.1735 30.9613 94.1855 28.2747 94.1855 24.704V15.24H90.0775V7.856H94.1855V0.523998H104.066V7.856H110.514V15.24H104.066V24.6C104.066 25.6053 104.326 26.4027 104.846 26.992C105.4 27.5467 106.128 27.824 107.03 27.824C108.174 27.824 109.179 27.5293 110.046 26.94L112.49 33.856ZM144.495 20.96C144.495 21.0293 144.443 21.844 144.339 23.404H123.851C124.267 24.86 125.064 25.9867 126.243 26.784C127.456 27.5467 128.964 27.928 130.767 27.928C132.119 27.928 133.28 27.7373 134.251 27.356C135.256 26.9747 136.262 26.3507 137.267 25.484L142.467 30.892C139.728 33.9427 135.724 35.468 130.455 35.468C127.162 35.468 124.267 34.844 121.771 33.596C119.275 32.348 117.334 30.6147 115.947 28.396C114.595 26.1773 113.919 23.664 113.919 20.856C113.919 18.0827 114.578 15.604 115.895 13.42C117.247 11.2013 119.102 9.468 121.459 8.22C123.816 6.972 126.468 6.348 129.415 6.348C132.223 6.348 134.771 6.93733 137.059 8.116C139.347 9.26 141.15 10.9413 142.467 13.16C143.819 15.344 144.495 17.944 144.495 20.96ZM129.467 13.368C127.942 13.368 126.659 13.8013 125.619 14.668C124.614 15.5347 123.972 16.7133 123.695 18.204H135.239C134.962 16.7133 134.303 15.5347 133.263 14.668C132.258 13.8013 130.992 13.368 129.467 13.368ZM178.058 20.96C178.058 21.0293 178.006 21.844 177.902 23.404H157.414C157.83 24.86 158.627 25.9867 159.806 26.784C161.019 27.5467 162.527 27.928 164.33 27.928C165.682 27.928 166.843 27.7373 167.814 27.356C168.819 26.9747 169.825 26.3507 170.83 25.484L176.03 30.892C173.291 33.9427 169.287 35.468 164.018 35.468C160.725 35.468 157.83 34.844 155.334 33.596C152.838 32.348 150.897 30.6147 149.51 28.396C148.158 26.1773 147.482 23.664 147.482 20.856C147.482 18.0827 148.141 15.604 149.458 13.42C150.81 11.2013 152.665 9.468 155.022 8.22C157.379 6.972 160.031 6.348 162.978 6.348C165.786 6.348 168.334 6.93733 170.622 8.116C172.91 9.26 174.713 10.9413 176.03 13.16C177.382 15.344 178.058 17.944 178.058 20.96ZM163.03 13.368C161.505 13.368 160.222 13.8013 159.182 14.668C158.177 15.5347 157.535 16.7133 157.258 18.204H168.802C168.525 16.7133 167.866 15.5347 166.826 14.668C165.821 13.8013 164.555 13.368 163.03 13.368Z" fill="#007EFF"/>
</svg>
